<svg width="141" height="35" viewBox="0 0 141 35" fill="none" xmlns="http://www.w3.org/2000/svg">
<path d="M17.5 0C15.2019 0 12.9262 0.4527 10.803 1.3321C8.6798 2.2116 6.7507 3.5006 5.1256 5.1256C3.5006 6.7507 2.2116 8.6798 1.3321 10.803C0.4527 12.9262 0 15.2019 0 17.5C0 19.7981 0.4527 22.0738 1.3321 24.197C2.2116 26.3202 3.5006 28.2493 5.1256 29.8744C6.7507 31.4994 8.6798 32.7884 10.803 33.6679C12.9262 34.5473 15.2019 35 17.5 35V26.25C16.3509 26.25 15.2131 26.0237 14.1515 25.5839C13.0899 25.1442 12.1253 24.4997 11.3128 23.6872C10.5003 22.8747 9.8558 21.9101 9.4161 20.8485C8.9763 19.7869 8.75 18.6491 8.75 17.5C8.75 16.3509 8.9763 15.2131 9.4161 14.1515C9.8558 13.0899 10.5003 12.1253 11.3128 11.3128C12.1253 10.5003 13.0899 9.8558 14.1515 9.4161C15.2131 8.9763 16.3509 8.75 17.5 8.75V0Z" fill="#0F52FF"/>
<path d="M17.5001 23.3333C20.7218 23.3333 23.3334 20.7217 23.3334 17.5C23.3334 14.2783 20.7218 11.6667 17.5001 11.6667C14.2784 11.6667 11.6668 14.2783 11.6668 17.5C11.6668 20.7217 14.2784 23.3333 17.5001 23.3333Z" fill="#0F52FF"/>
<path d="M0 17.5C0 19.7981 0.4527 22.0738 1.3321 24.197C2.2116 26.3202 3.5006 28.2493 5.1256 29.8744C6.7507 31.4994 8.6798 32.7884 10.803 33.6679C12.9262 34.5473 15.2019 35 17.5 35C19.7981 35 22.0738 34.5473 24.197 33.6679C26.3202 32.7884 28.2493 31.4994 29.8744 29.8744C31.4994 28.2493 32.7884 26.3202 33.6679 24.197C34.5473 22.0738 35 19.7981 35 17.5H26.25C26.25 18.6491 26.0237 19.7869 25.5839 20.8485C25.1442 21.9101 24.4997 22.8747 23.6872 23.6872C22.8747 24.4997 21.9101 25.1442 20.8485 25.5839C19.7869 26.0237 18.6491 26.25 17.5 26.25C16.3509 26.25 15.2131 26.0237 14.1515 25.5839C13.0899 25.1442 12.1253 24.4997 11.3128 23.6872C10.5003 22.8747 9.8558 21.9101 9.4161 20.8485C8.9763 19.7869 8.75 18.6491 8.75 17.5H0Z" fill="#5BD0F4"/>
<path d="M23.3334 17.5C23.3334 15.9529 22.7188 14.4692 21.6249 13.3752C20.5309 12.2812 19.0472 11.6666 17.5001 11.6666C15.953 11.6666 14.4693 12.2812 13.3753 13.3752C12.2813 14.4692 11.6667 15.9529 11.6667 17.5H17.5001H23.3334Z" fill="#5BD0F4"/>
<path d="M54.4 7.96V22H50.98V16.22H45.66V22H42.24V7.96H45.66V13.46H50.98V7.96H54.4ZM56.1889 16.4C56.1889 15.2533 56.4022 14.2467 56.8289 13.38C57.2689 12.5133 57.8622 11.8467 58.6089 11.38C59.3556 10.9133 60.1889 10.68 61.1089 10.68C61.8956 10.68 62.5822 10.84 63.1689 11.16C63.7689 11.48 64.2289 11.9 64.5489 12.42V10.84H67.9689V22H64.5489V20.42C64.2156 20.94 63.7489 21.36 63.1489 21.68C62.5622 22 61.8756 22.16 61.0889 22.16C60.1822 22.16 59.3556 21.9267 58.6089 21.46C57.8622 20.98 57.2689 20.3067 56.8289 19.44C56.4022 18.56 56.1889 17.5467 56.1889 16.4ZM64.5489 16.42C64.5489 15.5667 64.3089 14.8933 63.8289 14.4C63.3622 13.9067 62.7889 13.66 62.1089 13.66C61.4289 13.66 60.8489 13.9067 60.3689 14.4C59.9022 14.88 59.6689 15.5467 59.6689 16.4C59.6689 17.2533 59.9022 17.9333 60.3689 18.44C60.8489 18.9333 61.4289 19.18 62.1089 19.18C62.7889 19.18 63.3622 18.9333 63.8289 18.44C64.3089 17.9467 64.5489 17.2733 64.5489 16.42ZM73.8631 12.7C74.2631 12.0867 74.7631 11.6067 75.3631 11.26C75.9631 10.9 76.6298 10.72 77.3631 10.72V14.34H76.4231C75.5698 14.34 74.9298 14.5267 74.5031 14.9C74.0765 15.26 73.8631 15.9 73.8631 16.82V22H70.4431V10.84H73.8631V12.7ZM93.2378 10.72C94.6245 10.72 95.7245 11.14 96.5378 11.98C97.3645 12.82 97.7778 13.9867 97.7778 15.48V22H94.3778V15.94C94.3778 15.22 94.1845 14.6667 93.7978 14.28C93.4245 13.88 92.9045 13.68 92.2378 13.68C91.5711 13.68 91.0445 13.88 90.6578 14.28C90.2845 14.6667 90.0978 15.22 90.0978 15.94V22H86.6978V15.94C86.6978 15.22 86.5045 14.6667 86.1178 14.28C85.7445 13.88 85.2245 13.68 84.5578 13.68C83.8911 13.68 83.3645 13.88 82.9778 14.28C82.6045 14.6667 82.4178 15.22 82.4178 15.94V22H78.9978V10.84H82.4178V12.24C82.7645 11.7733 83.2178 11.4067 83.7778 11.14C84.3378 10.86 84.9711 10.72 85.6778 10.72C86.5178 10.72 87.2645 10.9 87.9178 11.26C88.5845 11.62 89.1045 12.1333 89.4778 12.8C89.8645 12.1867 90.3911 11.6867 91.0578 11.3C91.7245 10.9133 92.4511 10.72 93.2378 10.72ZM105.25 22.16C104.156 22.16 103.17 21.9267 102.29 21.46C101.423 20.9933 100.736 20.3267 100.23 19.46C99.7364 18.5933 99.4897 17.58 99.4897 16.42C99.4897 15.2733 99.743 14.2667 100.25 13.4C100.756 12.52 101.45 11.8467 102.33 11.38C103.21 10.9133 104.196 10.68 105.29 10.68C106.383 10.68 107.37 10.9133 108.25 11.38C109.13 11.8467 109.823 12.52 110.33 13.4C110.836 14.2667 111.09 15.2733 111.09 16.42C111.09 17.5667 110.83 18.58 110.31 19.46C109.803 20.3267 109.103 20.9933 108.21 21.46C107.33 21.9267 106.343 22.16 105.25 22.16ZM105.25 19.2C105.903 19.2 106.456 18.96 106.91 18.48C107.376 18 107.61 17.3133 107.61 16.42C107.61 15.5267 107.383 14.84 106.93 14.36C106.49 13.88 105.943 13.64 105.29 13.64C104.623 13.64 104.07 13.88 103.63 14.36C103.19 14.8267 102.97 15.5133 102.97 16.42C102.97 17.3133 103.183 18 103.61 18.48C104.05 18.96 104.596 19.2 105.25 19.2ZM119.704 10.72C121.011 10.72 122.051 11.1467 122.824 12C123.611 12.84 124.004 14 124.004 15.48V22H120.604V15.94C120.604 15.1933 120.411 14.6133 120.024 14.2C119.637 13.7867 119.117 13.58 118.464 13.58C117.811 13.58 117.291 13.7867 116.904 14.2C116.517 14.6133 116.324 15.1933 116.324 15.94V22H112.904V10.84H116.324V12.32C116.671 11.8267 117.137 11.44 117.724 11.16C118.311 10.8667 118.971 10.72 119.704 10.72ZM137.781 10.84L130.781 27.3H127.101L129.661 21.62L125.121 10.84H128.941L131.521 17.82L134.081 10.84H137.781Z" fill="url(#paint0_linear_3_128)"/>
<defs>
<linearGradient id="paint0_linear_3_128" x1="91" y1="0" x2="91.9035" y2="40.3223" gradientUnits="userSpaceOnUse">
<stop stop-color="#00A3FF"/>
<stop offset="1" stop-color="#005382" stop-opacity="0"/>
</linearGradient>
</defs>
</svg>
