<svg width="989" height="473" viewBox="0 0 989 473" fill="none" xmlns="http://www.w3.org/2000/svg">
<path d="M751.484 182.561C733.588 182.561 715.866 186.318 699.332 193.615C682.798 200.914 667.775 211.61 655.12 225.095C642.465 238.58 632.427 254.589 625.578 272.207C618.73 289.826 615.205 308.71 615.205 327.781C615.205 346.851 618.73 365.735 625.578 383.354C632.427 400.973 642.465 416.981 655.12 430.466C667.775 443.951 682.798 454.648 699.332 461.946C715.866 469.243 733.588 473 751.484 473V400.39C742.536 400.39 733.675 398.512 725.408 394.863C717.141 391.214 709.629 385.866 703.302 379.124C696.975 372.381 691.956 364.377 688.532 355.567C685.107 346.758 683.344 337.316 683.344 327.781C683.344 318.245 685.107 308.803 688.532 299.994C691.956 291.185 696.975 283.18 703.302 276.438C709.629 269.695 717.141 264.347 725.408 260.699C733.675 257.049 742.536 255.171 751.484 255.171V182.561Z" fill="#0F52FF"/>
<path d="M751.485 376.187C776.574 376.187 796.911 354.515 796.911 327.781C796.911 301.046 776.574 279.375 751.485 279.375C726.396 279.375 706.059 301.046 706.059 327.781C706.059 354.515 726.396 376.187 751.485 376.187Z" fill="#0F52FF"/>
<path d="M615.205 327.781C615.205 346.851 618.73 365.735 625.578 383.354C632.427 400.973 642.465 416.981 655.12 430.467C667.775 443.951 682.798 454.648 699.332 461.946C715.866 469.243 733.588 473 751.484 473C769.38 473 787.102 469.243 803.636 461.946C820.171 454.648 835.193 443.951 847.849 430.467C860.503 416.981 870.541 400.973 877.39 383.354C884.238 365.735 887.764 346.851 887.764 327.781H819.624C819.624 337.316 817.862 346.758 814.437 355.567C811.013 364.377 805.994 372.381 799.666 379.124C793.339 385.866 785.827 391.214 777.56 394.863C769.293 398.512 760.433 400.39 751.484 400.39C742.536 400.39 733.675 398.512 725.408 394.863C717.141 391.214 709.629 385.866 703.302 379.124C696.975 372.381 691.956 364.377 688.532 355.567C685.107 346.758 683.344 337.316 683.344 327.781H615.205Z" fill="#5BD0F4"/>
<path d="M796.911 327.781C796.911 314.943 792.125 302.63 783.607 293.552C775.087 284.474 763.533 279.374 751.485 279.374C739.437 279.374 727.883 284.474 719.364 293.552C710.844 302.63 706.058 314.943 706.058 327.781H751.485H796.911Z" fill="#5BD0F4"/>
</svg>
